<svg xmlns="http://www.w3.org/2000/svg" xmlns:xlink="http://www.w3.org/1999/xlink" width="72" height="72" viewBox="0 0 72 72">
  <defs>
    <clipPath id="clip-path">
      <rect id="Rectangle_406" data-name="Rectangle 406" width="23.661" height="35.804" fill="#4b392d"/>
    </clipPath>
  </defs>
  <g id="Group_600" data-name="Group 600" transform="translate(423 -1985)">
    <circle id="Ellipse_10" data-name="Ellipse 10" cx="36" cy="36" r="36" transform="translate(-423 1985)" fill="#b98c5a"/>
    <g id="Group_596" data-name="Group 596" transform="translate(-398.83 2006.696)">
      <g id="Group_582" data-name="Group 582" clip-path="url(#clip-path)">
        <path id="Path_47" data-name="Path 47" d="M22,1.521A1.814,1.814,0,0,0,20.208,0H3.452a1.814,1.814,0,0,0-1.8,1.521L0,11.43a.94.94,0,0,0,0,.217L.72,15.269,2.786,31.051A5.476,5.476,0,0,0,8.2,35.8h7.257a5.476,5.476,0,0,0,5.415-4.753L22.94,15.269l.712-3.622a.922.922,0,0,0,0-.217ZM5.155,1.214H18.505V4.248a.607.607,0,0,1-.607.607H5.761a.608.608,0,0,1-.607-.607ZM19.67,30.894a4.259,4.259,0,0,1-4.212,3.7H8.2a4.259,4.259,0,0,1-4.212-3.7l-1.963-15a2.237,2.237,0,0,1,1.494,1.784L5.129,28.7a3.356,3.356,0,0,0,3.3,2.856h6.8a3.356,3.356,0,0,0,3.3-2.856l1.608-11.019A2.237,2.237,0,0,1,21.633,15.9ZM21.834,14.6a3.462,3.462,0,0,0-2.9,2.9L17.329,28.525a2.135,2.135,0,0,1-2.1,1.817h-6.8a2.135,2.135,0,0,1-2.1-1.817L4.722,17.507a3.462,3.462,0,0,0-2.9-2.9l-.485-2.465H22.319ZM7.753,10.923l.188-.754a.605.605,0,0,1,.589-.46h6.6a.606.606,0,0,1,.589.46l.188.754Zm9.406,0L16.9,9.875A1.818,1.818,0,0,0,15.13,8.5H8.53A1.818,1.818,0,0,0,6.763,9.875L6.5,10.923H1.32l1.534-9.2a.6.6,0,0,1,.6-.507h.489V4.248A1.823,1.823,0,0,0,5.761,6.068H17.9a1.822,1.822,0,0,0,1.821-1.821V1.214h.489a.6.6,0,0,1,.6.507l1.534,9.2Z" transform="translate(0)" fill="#4b392d"/>
        <path id="Path_48" data-name="Path 48" d="M31.305,8H21.6a.607.607,0,0,0,0,1.214h9.71a.607.607,0,0,0,0-1.214" transform="translate(-14.62 -5.573)" fill="#4b392d"/>
        <path id="Path_49" data-name="Path 49" d="M33.416,67a2.43,2.43,0,0,0-2.427,2.427v3.034a2.427,2.427,0,0,0,4.855,0V69.427A2.43,2.43,0,0,0,33.416,67m1.214,5.462a1.214,1.214,0,0,1-2.427,0v-.91H34.63Zm0-2.124H32.2v-.91a1.214,1.214,0,0,1,2.427,0Z" transform="translate(-21.586 -46.671)" fill="#4b392d"/>
      </g>
    </g>
  </g>
</svg>
