<svg xmlns="http://www.w3.org/2000/svg" xmlns:xlink="http://www.w3.org/1999/xlink" width="69" height="75" viewBox="0 0 69 75">
  <defs>
    <clipPath id="clip-path">
      <rect id="Rectangle_404" data-name="Rectangle 404" width="69" height="75" transform="translate(0 0)" fill="#b98c5a"/>
    </clipPath>
  </defs>
  <g id="Group_579" data-name="Group 579" transform="translate(0 0.114)">
    <g id="Group_578" data-name="Group 578" transform="translate(0 -0.114)" clip-path="url(#clip-path)">
      <path id="Path_41" data-name="Path 41" d="M0,21.418c0,10.844,8.082,15.96,8.482,16.457a20.153,20.153,0,0,0,7.875,4.113L21.63,62.214a7.05,7.05,0,0,0,5.085,5.056l1.531,4.271a4.419,4.419,0,1,0,8.321-2.978l-1.794-5.006a6.957,6.957,0,0,0,.346-5.439l-1.474-4.247,1.77-.937a3.791,3.791,0,0,0,.591-6.313,10.135,10.135,0,0,0-5.636-2.168l-.1-.3A1.252,1.252,0,0,1,31.31,42.49c10.331-1.022,23.28-4.681,31.665-8.118C66.7,33.1,69.42,27.87,69.42,21.417S66.7,9.731,62.974,8.463l-.014-.008C61.912,8.022,37.068-2.133,18.559.407A19.812,19.812,0,0,0,8.482,4.96L7.1,6.124A19.976,19.976,0,0,0,0,21.418m58.755,9.6c2.009-2.037,3.256-5.617,3.256-9.6s-1.247-7.561-3.256-9.6a3.614,3.614,0,0,1,2.461-1.131c3.079,0,5.68,4.913,5.68,10.729s-2.6,10.729-5.68,10.729a3.613,3.613,0,0,1-2.461-1.131m.732-9.6a12.215,12.215,0,0,1-2.248,7.526,16.529,16.529,0,0,1-1.7-7.526,16.543,16.543,0,0,1,1.7-7.526,12.216,12.216,0,0,1,2.248,7.526M32.807,51.459,31.3,47.119A7.574,7.574,0,0,1,34.435,48.6a1.264,1.264,0,0,1-.2,2.106ZM29.448,67.413a6.919,6.919,0,0,0,3.479-1.525l1.264,3.526a1.895,1.895,0,1,1-3.568,1.276ZM19.081,35.651c1.32-1.88,4.324-2.874,8.687-2.874,7.3,0,13.918-4.936,16.478-12.282a16.649,16.649,0,0,0-2.26-15.836,139.574,139.574,0,0,1,15.935,4.6A8.492,8.492,0,0,0,55.948,11.2l0,0,0,0h0c-2.081,2.788-2.931,6.713-2.931,10.212a17.416,17.416,0,0,0,2.933,10.215,8.491,8.491,0,0,0,1.977,1.943c-5.636,2-16.313,5.359-26.864,6.4a3.776,3.776,0,0,0-3.174,5.012c.888,2.553,3.98,11.437,4.851,13.957a4.53,4.53,0,1,1-8.661,2.632c-1.358-5.2-5.4-20.731-5.484-21a5.67,5.67,0,0,1,.491-4.924M2.524,21.418A17.458,17.458,0,0,1,8.732,8.053l1.379-1.164A17.294,17.294,0,0,1,18.9,2.908c5.855-.8,12.486-.24,18.761.883a14.12,14.12,0,0,1,4.2,15.873c-1.836,5.27-6.907,10.588-14.094,10.588-5.314,0-8.938,1.337-10.771,3.974a7.526,7.526,0,0,0-1.235,4.943,17.768,17.768,0,0,1-5.651-3.224c-.436-.538-7.586-4.975-7.586-14.528" transform="translate(0 0.103)" fill="#b98c5a"/>
      <path id="Path_42" data-name="Path 42" d="M16,20.617a5.686,5.686,0,0,0,5.68,5.68h10.1a5.68,5.68,0,0,0,0-11.36H21.68A5.686,5.686,0,0,0,16,20.617m2.524,0a3.159,3.159,0,0,1,3.155-3.155h10.1a3.155,3.155,0,0,1,0,6.311H21.68a3.159,3.159,0,0,1-3.155-3.155" transform="translate(-5.902 -5.407)" fill="#b98c5a"/>
    </g>
  </g>
</svg>
