<svg xmlns="http://www.w3.org/2000/svg" xmlns:xlink="http://www.w3.org/1999/xlink" width="72" height="72" viewBox="0 0 72 72">
  <defs>
    <clipPath id="clip-path">
      <rect id="Rectangle_404" data-name="Rectangle 404" width="37" height="40" transform="translate(0 0.217)" fill="#4b392d"/>
    </clipPath>
  </defs>
  <g id="Group_597" data-name="Group 597" transform="translate(423 -1727)">
    <circle id="Ellipse_7" data-name="Ellipse 7" cx="36" cy="36" r="36" transform="translate(-423 1727)" fill="#b98c5a"/>
    <g id="Group_592" data-name="Group 592" transform="translate(-405 1746.896)">
      <g id="Group_578" data-name="Group 578" transform="translate(0 -0.114)" clip-path="url(#clip-path)">
        <path id="Path_41" data-name="Path 41" d="M0,11.485A11.083,11.083,0,0,0,4.548,20.31a10.807,10.807,0,0,0,4.223,2.206L11.6,33.361a3.781,3.781,0,0,0,2.727,2.711l.821,2.29a2.37,2.37,0,1,0,4.462-1.6l-.962-2.685a3.731,3.731,0,0,0,.186-2.916l-.791-2.277.949-.5A2.033,2.033,0,0,0,19.308,25a5.435,5.435,0,0,0-3.022-1.162l-.056-.159a.671.671,0,0,1,.559-.894,67.885,67.885,0,0,0,16.98-4.353c2-.68,3.457-3.486,3.457-6.946s-1.458-6.266-3.457-6.946l-.007,0C33.2,4.3,19.877-1.144,9.952.218a10.624,10.624,0,0,0-5.4,2.441l-.739.624A10.712,10.712,0,0,0,0,11.485m31.506,5.146a7.467,7.467,0,0,0,1.746-5.147,7.465,7.465,0,0,0-1.746-5.147,1.938,1.938,0,0,1,1.32-.606c1.651,0,3.046,2.635,3.046,5.753s-1.395,5.753-3.046,5.753a1.938,1.938,0,0,1-1.32-.606m.393-5.147a6.55,6.55,0,0,1-1.205,4.036,8.863,8.863,0,0,1-.913-4.036,8.871,8.871,0,0,1,.913-4.036A6.55,6.55,0,0,1,31.9,11.484M17.592,27.594l-.809-2.327a4.061,4.061,0,0,1,1.682.793.678.678,0,0,1-.107,1.129Zm-1.8,8.555a3.71,3.71,0,0,0,1.865-.818l.678,1.891a1.016,1.016,0,1,1-1.913.684ZM10.232,19.117c.708-1.008,2.319-1.541,4.658-1.541a9.53,9.53,0,0,0,8.836-6.586A8.928,8.928,0,0,0,22.514,2.5a74.844,74.844,0,0,1,8.545,2.468A4.553,4.553,0,0,0,30,6.005v0h0a9.4,9.4,0,0,0-1.572,5.476A9.339,9.339,0,0,0,30,16.962,4.553,4.553,0,0,0,31.06,18a65.184,65.184,0,0,1-14.405,3.433,2.025,2.025,0,0,0-1.7,2.687c.476,1.369,2.134,6.133,2.6,7.484a2.429,2.429,0,1,1-4.644,1.412c-.728-2.789-2.9-11.117-2.94-11.262a3.04,3.04,0,0,1,.263-2.641M1.354,11.485A9.361,9.361,0,0,1,4.682,4.318l.739-.624a9.274,9.274,0,0,1,4.714-2.134,33.28,33.28,0,0,1,10.06.473,7.572,7.572,0,0,1,2.251,8.512,8.211,8.211,0,0,1-7.558,5.678c-2.85,0-4.793.717-5.776,2.131A4.035,4.035,0,0,0,8.452,21a9.528,9.528,0,0,1-3.03-1.729,9.777,9.777,0,0,1-4.068-7.79" transform="translate(0 0.056)" fill="#4b392d"/>
        <path id="Path_42" data-name="Path 42" d="M16,17.983a3.049,3.049,0,0,0,3.046,3.046H24.46a3.046,3.046,0,0,0,0-6.091H19.046A3.049,3.049,0,0,0,16,17.983m1.354,0a1.694,1.694,0,0,1,1.692-1.692H24.46a1.692,1.692,0,1,1,0,3.384H19.046a1.694,1.694,0,0,1-1.692-1.692" transform="translate(-10.585 -9.827)" fill="#4b392d"/>
      </g>
    </g>
  </g>
</svg>
