<svg xmlns="http://www.w3.org/2000/svg" xmlns:xlink="http://www.w3.org/1999/xlink" width="72" height="72" viewBox="0 0 72 72">
  <defs>
    <clipPath id="clip-path">
      <rect id="Rectangle_407" data-name="Rectangle 407" width="25" height="45" transform="translate(-0.262 0.443)" fill="#4b392d"/>
    </clipPath>
  </defs>
  <g id="Group_599" data-name="Group 599" transform="translate(423 -1899)">
    <circle id="Ellipse_9" data-name="Ellipse 9" cx="36" cy="36" r="36" transform="translate(-423 1899)" fill="#b98c5a"/>
    <g id="Group_595" data-name="Group 595" transform="translate(-398.738 1915.557)">
      <g id="Group_584" data-name="Group 584" transform="translate(0 0)" clip-path="url(#clip-path)">
        <path id="Path_50" data-name="Path 50" d="M23.736,0H.766A.766.766,0,0,0,0,.766v5.36c0,.021.006.1.008.114l4.586,30.57v6.068a2.3,2.3,0,0,0,2.3,2.3H17.61a2.3,2.3,0,0,0,2.3-2.3V36.809l4.586-30.57c0-.017.008-.092.008-.114V.766A.766.766,0,0,0,23.736,0m-5.36,42.877a.766.766,0,0,1-.766.766H6.891a.766.766,0,0,1-.766-.766v-5.36H18.376Zm.106-6.891H6.019L1.655,6.891H22.847ZM22.97,5.36H21.439V3.828a.766.766,0,0,0-1.531,0V5.36h-2.68V3.828a.766.766,0,1,0-1.531,0V5.36h-2.68V3.828a.766.766,0,1,0-1.531,0V5.36H8.805V3.828a.766.766,0,0,0-1.531,0V5.36H4.594V3.828a.766.766,0,1,0-1.531,0V5.36H1.531V1.531H22.97Z" transform="translate(0 -0.053)" fill="#4b392d"/>
        <path id="Path_51" data-name="Path 51" d="M28.183,34.425a.766.766,0,0,0-1.083,0l-4.331,4.331a4.6,4.6,0,0,0-.456,5.956,4.6,4.6,0,0,0,.456,5.955.766.766,0,0,0,1.083,0l4.331-4.331a4.6,4.6,0,0,0,.457-5.955,4.6,4.6,0,0,0-.457-5.955M27.1,45.254l-3.722,3.722a3.066,3.066,0,0,1,.474-3.722l3.721-3.722a3.069,3.069,0,0,1-.473,3.722m0-5.414-3.721,3.721a3.068,3.068,0,0,1,.473-3.722l3.722-3.722A3.066,3.066,0,0,1,27.1,39.84" transform="translate(-13.225 -21.161)" fill="#4b392d"/>
      </g>
    </g>
  </g>
</svg>
