<svg xmlns="http://www.w3.org/2000/svg" xmlns:xlink="http://www.w3.org/1999/xlink" width="72" height="72" viewBox="0 0 72 72">
  <defs>
    <clipPath id="clip-path">
      <rect id="Rectangle_405" data-name="Rectangle 405" width="44.215" height="40.541" fill="#4b392d"/>
    </clipPath>
  </defs>
  <g id="Group_598" data-name="Group 598" transform="translate(423 -1811)">
    <circle id="Ellipse_8" data-name="Ellipse 8" cx="36" cy="36" r="36" transform="translate(-423 1811)" fill="#b98c5a"/>
    <g id="Group_594" data-name="Group 594" transform="translate(-405 1831)">
      <g id="Group_580" data-name="Group 580" transform="translate(0 0)" clip-path="url(#clip-path)">
        <path id="Path_43" data-name="Path 43" d="M43.923,3.873a.753.753,0,0,0-.7-.118,11.519,11.519,0,0,1-3.269.454.754.754,0,0,0-.06-.25L38.384.452A.75.75,0,0,0,37.324.1L34.215,1.872a.752.752,0,0,0-.33.386c0,.007-.24.628-.738,1.7-3.865-.205-7.8-.243-10.528,1.123C17.927,7.436,1.94,8.194,1.779,8.2a.75.75,0,0,0-.666.48C-.171,12.008-.345,14.39.595,15.76a2.438,2.438,0,0,0,1.943,1.092h0c13.782-.32,20.265-3.411,20.533-3.542a.75.75,0,0,0,.421-.674c0-2.629,2.834-3.583,4.738-3.583.526,0,1.264-.014,2.195-.039A73.159,73.159,0,0,1,7.6,32.517a.749.749,0,0,0-.337.7l.532,5.732a.751.751,0,0,0,.625.671l5.535.913a.748.748,0,0,0,.659-.217c.723-.743,17.612-18.171,23.729-31.6l1.683-.08a4.405,4.405,0,0,0,4.187-4.112.75.75,0,0,0-.29-.644M28.232,7.551c-2.941,0-5.916,1.571-6.215,4.582-1.59.653-7.963,2.95-19.479,3.219a.967.967,0,0,1-.723-.467c-.334-.513-.689-1.863.528-5.208,2.823-.149,16.4-.973,20.95-3.258,2.262-1.135,5.683-1.162,9.133-1-.316.617-.706,1.345-1.112,2.064-1.371.044-2.407.067-3.083.067M13.809,38.985l-4.574-.754L8.8,33.525c13.316-8.794,22.6-21.17,26.389-30.48l2.151-1.228,1.075,2.49c-3.065,10.527-17.091,26.823-24.6,34.677m28.062-32.7a2.909,2.909,0,0,1-1.918.847L39,7.175c.117-.291.412-1.08.54-1.455a18.023,18.023,0,0,0,2.889-.227,2.908,2.908,0,0,1-.561.79" transform="translate(0 0)" fill="#4b392d"/>
        <path id="Path_44" data-name="Path 44" d="M24.357,27.041c-2.01.715-7.7,2.411-17.1,2.707a.75.75,0,0,0,.023,1.5h.024c9.263-.291,14.974-1.875,17.554-2.793a.75.75,0,0,0-.5-1.414" transform="translate(-4.081 -16.867)" fill="#4b392d"/>
        <path id="Path_45" data-name="Path 45" d="M93.474,14.2a.747.747,0,0,0,0,1.062A.751.751,0,0,0,94.536,14.2a.773.773,0,0,0-1.062,0" transform="translate(-58.262 -8.74)" fill="#4b392d"/>
        <path id="Path_46" data-name="Path 46" d="M30.345,92.715a.748.748,0,0,0,0,1.062.751.751,0,1,0,0-1.062" transform="translate(-18.821 -57.789)" fill="#4b392d"/>
      </g>
    </g>
  </g>
</svg>
