<svg xmlns="http://www.w3.org/2000/svg" xmlns:xlink="http://www.w3.org/1999/xlink" width="46" height="83" viewBox="0 0 46 83">
  <defs>
    <clipPath id="clip-path">
      <rect id="Rectangle_407" data-name="Rectangle 407" width="46" height="83" transform="translate(0 0)" fill="#b98c5a"/>
    </clipPath>
  </defs>
  <g id="Group_585" data-name="Group 585" transform="translate(0 -0.109)">
    <g id="Group_584" data-name="Group 584" transform="translate(0 0.109)" clip-path="url(#clip-path)">
      <path id="Path_50" data-name="Path 50" d="M43.661,0H1.408A1.408,1.408,0,0,0,0,1.408v9.859c0,.039.011.178.015.209L8.451,67.71V78.872A4.23,4.23,0,0,0,12.676,83.1H32.394a4.23,4.23,0,0,0,4.225-4.225V67.71l8.435-56.234c0-.031.015-.17.015-.209V1.408A1.408,1.408,0,0,0,43.661,0M33.8,78.872a1.41,1.41,0,0,1-1.408,1.408H12.676a1.41,1.41,0,0,1-1.408-1.408V69.013H33.8ZM34,66.2H11.072L3.044,12.676H42.026ZM42.253,9.859H39.436V7.042a1.408,1.408,0,1,0-2.817,0V9.859H31.69V7.042a1.408,1.408,0,1,0-2.817,0V9.859h-4.93V7.042a1.408,1.408,0,0,0-2.817,0V9.859H16.2V7.042a1.408,1.408,0,0,0-2.817,0V9.859H8.451V7.042a1.408,1.408,0,0,0-2.817,0V9.859H2.817V2.817H42.253Z" transform="translate(0 -0.098)" fill="#b98c5a"/>
      <path id="Path_51" data-name="Path 51" d="M33.853,34.614a1.408,1.408,0,0,0-1.992,0l-7.968,7.967a8.458,8.458,0,0,0-.839,10.956,8.457,8.457,0,0,0,.839,10.955,1.409,1.409,0,0,0,1.992,0l7.967-7.968a8.457,8.457,0,0,0,.84-10.955,8.457,8.457,0,0,0-.84-10.955M31.861,54.532l-6.846,6.846a5.641,5.641,0,0,1,.871-6.846l6.845-6.846a5.645,5.645,0,0,1-.87,6.846m0-9.959-6.845,6.845a5.644,5.644,0,0,1,.87-6.846l6.846-6.846a5.641,5.641,0,0,1-.871,6.846" transform="translate(-6.338 -10.214)" fill="#b98c5a"/>
    </g>
  </g>
</svg>
