<svg id="Group_629" data-name="Group 629" xmlns="http://www.w3.org/2000/svg" xmlns:xlink="http://www.w3.org/1999/xlink" width="79.443" height="99.007" viewBox="0 0 79.443 99.007">
  <defs>
    <clipPath id="clip-path">
      <path id="Path_37" data-name="Path 37" d="M31.611,90a8.537,8.537,0,0,1-1.359-11.051,6.413,6.413,0,0,1,9.717-1.2,8.544,8.544,0,0,1,1.361,11.05,6.557,6.557,0,0,1-4.583,2.848,6.045,6.045,0,0,1-.764.048A6.649,6.649,0,0,1,31.611,90M25.993,49.139a1.484,1.484,0,1,1,1.655,1.292,1.506,1.506,0,0,1-.181.012,1.487,1.487,0,0,1-1.474-1.3M28.994,0,24.7,43.366a7.91,7.91,0,0,0-.033,1.028c.113,3.179.129,6.275,1.77,9.009l1.956,3.257A35.793,35.793,0,0,1,31.3,63.539a25.758,25.758,0,0,1,1.347,7.1c.021,1.7-.01,3.777-1.191,5.127-.366.418-.827.721-1.228,1.1a8.5,8.5,0,0,0-1.109,1.292,9.919,9.919,0,0,0,1.584,12.875,7.948,7.948,0,0,0,6.207,1.981c.132-.015.257-.046.387-.068a5.9,5.9,0,0,1,.776-.048,1.544,1.544,0,0,1,.622.107,2.4,2.4,0,0,1,1.05,2.176c-.01.635-.164,1.273-.2,1.908a2.214,2.214,0,0,0,.412,1.536,1.128,1.128,0,0,0,.88.378h.03a1.67,1.67,0,0,0,.842-.242,1.329,1.329,0,0,0,.354-.314,1.349,1.349,0,0,0,.21-1.185A6.371,6.371,0,0,0,40.953,95.2a3.5,3.5,0,0,1-.7-1.994c-.015-.787.045-1.3,1.181-2.373.028-.027.027-.039.01-.046a8.534,8.534,0,0,0,1.008-1.194,9.919,9.919,0,0,0-1.582-12.874,8.4,8.4,0,0,0-1.915-1.26,6.245,6.245,0,0,1-1.74-.888,5.15,5.15,0,0,1-.989-1.376,16.622,16.622,0,0,1-.81-1.911,80.675,80.675,0,0,1-3.863-13.372A84.5,84.5,0,0,1,30.28,43.841q-.265-9.088-.532-18.174-.261-8.851-.52-17.7Q29.112,3.984,28.994,0Z" transform="translate(-24.662)" fill="#fff"/>
    </clipPath>
    <clipPath id="clip-path-2">
      <path id="Path_38" data-name="Path 38" d="M22.724,91.653a6.554,6.554,0,0,1-4.582-2.848A8.542,8.542,0,0,1,19.5,77.755a6.413,6.413,0,0,1,9.717,1.2A8.537,8.537,0,0,1,27.859,90a6.652,6.652,0,0,1-4.371,1.7,6.045,6.045,0,0,1-.764-.048m9.1-41.222a1.478,1.478,0,1,1,.181.012,1.506,1.506,0,0,1-.181-.012M30.476,0q-.116,3.982-.233,7.963-.261,8.853-.52,17.7-.265,9.085-.532,18.174a84.342,84.342,0,0,1-1.273,14.072,80.824,80.824,0,0,1-3.865,13.372,16.362,16.362,0,0,1-.81,1.911,5.117,5.117,0,0,1-.989,1.376,6.236,6.236,0,0,1-1.738.888,8.408,8.408,0,0,0-1.917,1.26,9.919,9.919,0,0,0-1.582,12.874,8.161,8.161,0,0,0,4.192,3.1,7.552,7.552,0,0,0,3.1.318,8.121,8.121,0,0,0,1.15-.219,8.236,8.236,0,0,0,3.31-1.758,9.919,9.919,0,0,0,1.584-12.875,8.575,8.575,0,0,0-1.108-1.292c-.4-.382-.864-.686-1.23-1.1-1.181-1.35-1.21-3.431-1.191-5.127a25.813,25.813,0,0,1,1.347-7.1,35.793,35.793,0,0,1,2.913-6.879L33.034,53.4c1.64-2.733,1.657-5.829,1.77-9.009a7.911,7.911,0,0,0-.033-1.028Z" transform="translate(-15.333)" fill="#fff"/>
    </clipPath>
    <clipPath id="clip-path-3">
      <path id="Path_39" data-name="Path 39" d="M51.044,34.581a28.492,28.492,0,0,1-3.686.149,23.456,23.456,0,0,0-4.429.263,6.376,6.376,0,0,0-3.466,1.689,6.912,6.912,0,0,1,4.579-1.1c1.6.092,3.172.47,4.772.592a14.967,14.967,0,0,0,9.422-2.5,13.574,13.574,0,0,1-11.248,3.621c-.857-.125-1.7-.336-2.562-.436a10.161,10.161,0,0,0-2.919.08,5.546,5.546,0,0,0-2.234.83,2.188,2.188,0,0,0-1.1,2.4,4.219,4.219,0,0,0,1.86,2.356,2.719,2.719,0,0,0,1.224.516,10.387,10.387,0,0,1,1.541.277,2.194,2.194,0,0,1,1.523.923.805.805,0,0,1-.083.891,1.264,1.264,0,0,1-.7.3.848.848,0,0,0,.485-.338.473.473,0,0,0-.037-.561.509.509,0,0,0-.662.03,1.474,1.474,0,0,0-.37.619,1.5,1.5,0,0,0,.012-.73,1,1,0,0,0-.529-.556,3,3,0,0,0-.758-.217l-.974-.187c.077.015.248.366.3.445a4.809,4.809,0,0,1,.3.538,7.675,7.675,0,0,0,.532,1.109,2.294,2.294,0,0,0,2.143,1.056A1.671,1.671,0,0,0,45.4,44.873a2.36,2.36,0,0,0-1.593-1.64c-.91-.376-2.006-.256-2.878-.721a1.143,1.143,0,0,1-.129-.077,1.116,1.116,0,0,1-.528-.824c-.077-1.288,1.767-.851,2.461-.564a4.309,4.309,0,0,1,1.023.614c.3.235.562.522.879.736a5.871,5.871,0,0,0,1.466.616,5.811,5.811,0,0,0,1.7.274,3.014,3.014,0,0,0,2.1-.586,3.654,3.654,0,0,1-2.491-.587C46.825,41.8,46.286,41.4,45.7,41.1a5.5,5.5,0,0,0-1.842-.576,8.588,8.588,0,0,1,2.131.5,13.013,13.013,0,0,1,1.96,1,3.572,3.572,0,0,0,1.359.51,1.672,1.672,0,0,1-.775-.4q-.413-.3-.827-.6A11.822,11.822,0,0,0,46,40.487a6.605,6.605,0,0,0-2.806-.691c.115,0,.228,0,.341,0a10.569,10.569,0,0,1,1.225.043c.5.057,1.011.112,1.517.162a27.1,27.1,0,0,0,3.2.147,18.59,18.59,0,0,0,2.014-.143c4.574-.584,9.358-4.292,9.4-9.022v-.116a7.392,7.392,0,0,0-.336-2.13,13.744,13.744,0,0,1-9.51,5.843" transform="translate(-38.09 -28.738)" fill="#fff"/>
    </clipPath>
    <clipPath id="clip-path-4">
      <path id="Path_40" data-name="Path 40" d="M0,30.866v.119c.04,4.729,4.824,8.436,9.4,9.021a18.617,18.617,0,0,0,2.014.143,27.069,27.069,0,0,0,3.2-.147c.506-.051,1.014-.106,1.517-.162a10.569,10.569,0,0,1,1.225-.043c.113,0,.226,0,.341,0a6.593,6.593,0,0,0-2.8.691,11.661,11.661,0,0,0-1.7,1.047c-.277.2-.552.4-.828.6a1.667,1.667,0,0,1-.773.4,3.581,3.581,0,0,0,1.359-.51,13,13,0,0,1,1.958-1,8.6,8.6,0,0,1,2.131-.5A5.48,5.48,0,0,0,15.2,41.1c-.592.308-1.132.7-1.719,1.017a3.65,3.65,0,0,1-2.491.587,3.018,3.018,0,0,0,2.1.586,5.8,5.8,0,0,0,1.7-.274,5.9,5.9,0,0,0,1.468-.616c.315-.214.577-.5.877-.736a4.339,4.339,0,0,1,1.023-.614c.7-.287,2.538-.724,2.461.564a1.116,1.116,0,0,1-.528.824,1.272,1.272,0,0,1-.128.077c-.871.465-1.966.345-2.876.721a2.362,2.362,0,0,0-1.6,1.64,1.673,1.673,0,0,0,1.432,1.764,2.3,2.3,0,0,0,2.144-1.056,7.669,7.669,0,0,0,.531-1.109,5.066,5.066,0,0,1,.306-.538c.048-.079.219-.43.3-.445l-.976.187a3.036,3.036,0,0,0-.758.217,1,1,0,0,0-.529.556,1.5,1.5,0,0,0,.012.73,1.487,1.487,0,0,0-.369-.619.511.511,0,0,0-.663-.03.47.47,0,0,0-.036.561.844.844,0,0,0,.483.338,1.264,1.264,0,0,1-.7-.3.808.808,0,0,1-.082-.891,2.191,2.191,0,0,1,1.521-.923,10.407,10.407,0,0,1,1.542-.277,2.714,2.714,0,0,0,1.222-.516,4.2,4.2,0,0,0,1.86-2.356,2.186,2.186,0,0,0-1.1-2.4,5.539,5.539,0,0,0-2.232-.83,10.163,10.163,0,0,0-2.919-.08c-.861.1-1.706.311-2.564.436A13.575,13.575,0,0,1,2.654,33.671a14.972,14.972,0,0,0,9.424,2.5c1.6-.122,3.172-.5,4.772-.592a6.908,6.908,0,0,1,4.577,1.1,6.366,6.366,0,0,0-3.466-1.689,23.472,23.472,0,0,0-4.43-.263,28.47,28.47,0,0,1-3.685-.149,13.751,13.751,0,0,1-9.51-5.843A7.441,7.441,0,0,0,0,30.866" transform="translate(0 -28.738)" fill="#fff"/>
    </clipPath>
  </defs>
  <g id="Group_6" data-name="Group 6" transform="translate(36.674)">
    <g id="Group_5" data-name="Group 5" clip-path="url(#clip-path)">
      <rect id="Rectangle_11" data-name="Rectangle 11" width="96.265" height="64.953" transform="translate(-41.792 76.05) rotate(-61.214)" fill="#fff"/>
    </g>
  </g>
  <g id="Group_8" data-name="Group 8" transform="translate(22.802)">
    <g id="Group_7" data-name="Group 7" clip-path="url(#clip-path-2)">
      <rect id="Rectangle_12" data-name="Rectangle 12" width="94.993" height="32.882" transform="translate(-13.464 91.207) rotate(-81.744)" fill="#fff"/>
    </g>
  </g>
  <g id="Group_10" data-name="Group 10" transform="translate(56.642 42.736)">
    <g id="Group_9" data-name="Group 9" clip-path="url(#clip-path-3)">
      <rect id="Rectangle_13" data-name="Rectangle 13" width="29.183" height="27.912" transform="matrix(0.823, -0.569, 0.569, 0.823, -8.649, 5.827)" fill="#fff"/>
    </g>
  </g>
  <g id="Group_12" data-name="Group 12" transform="translate(0 42.736)">
    <g id="Group_11" data-name="Group 11" clip-path="url(#clip-path-4)">
      <rect id="Rectangle_14" data-name="Rectangle 14" width="27.912" height="29.183" transform="matrix(0.569, -0.823, 0.823, 0.569, -8.428, 12.191)" fill="#fff"/>
    </g>
  </g>
</svg>
