<svg id="Group_581" data-name="Group 581" xmlns="http://www.w3.org/2000/svg" xmlns:xlink="http://www.w3.org/1999/xlink" width="81.333" height="74.574" viewBox="0 0 81.333 74.574">
  <defs>
    <clipPath id="clip-path">
      <rect id="Rectangle_405" data-name="Rectangle 405" width="81.333" height="74.574" fill="#b98c5a"/>
    </clipPath>
  </defs>
  <g id="Group_580" data-name="Group 580" transform="translate(0 0)" clip-path="url(#clip-path)">
    <path id="Path_43" data-name="Path 43" d="M80.8,7.126a1.386,1.386,0,0,0-1.281-.217,21.189,21.189,0,0,1-6.013.834,1.387,1.387,0,0,0-.11-.46L70.608.832A1.379,1.379,0,0,0,68.656.181L62.939,3.443a1.383,1.383,0,0,0-.607.71c0,.013-.442,1.155-1.358,3.121C53.866,6.9,46.618,6.827,41.608,9.339c-8.631,4.339-38.04,5.734-38.336,5.748a1.38,1.38,0,0,0-1.224.883C-.313,22.09-.635,26.47,1.094,28.99A4.485,4.485,0,0,0,4.667,31h0c25.352-.589,37.277-6.274,37.771-6.516a1.379,1.379,0,0,0,.775-1.24c0-4.836,5.213-6.591,8.716-6.591.967,0,2.325-.025,4.037-.072A134.576,134.576,0,0,1,13.98,59.814a1.378,1.378,0,0,0-.62,1.283l.978,10.544a1.381,1.381,0,0,0,1.15,1.235L25.67,74.555a1.376,1.376,0,0,0,1.213-.4c1.331-1.367,32.4-33.425,43.649-58.136l3.1-.146a8.1,8.1,0,0,0,7.7-7.564A1.379,1.379,0,0,0,80.8,7.126M51.932,13.89c-5.409,0-10.883,2.89-11.432,8.428-2.925,1.2-14.649,5.426-35.832,5.921a1.779,1.779,0,0,1-1.331-.859c-.614-.944-1.267-3.428.972-9.58,5.193-.273,30.175-1.789,38.538-5.993C47.008,9.72,53.3,9.67,59.648,9.97c-.58,1.134-1.3,2.474-2.045,3.8-2.521.081-4.427.123-5.671.123M25.4,71.713l-8.415-1.387-.8-8.656C40.68,45.494,57.75,22.728,64.728,5.6l3.957-2.258,1.977,4.581C65.024,27.289,39.222,57.265,25.4,71.713M77.021,11.558a5.352,5.352,0,0,1-3.528,1.558l-1.748.083c.215-.536.759-1.986.993-2.676a33.154,33.154,0,0,0,5.315-.418,5.349,5.349,0,0,1-1.033,1.454" transform="translate(0 0)" fill="#b98c5a"/>
    <path id="Path_44" data-name="Path 44" d="M39.32,27.078c-3.7,1.316-14.164,4.435-31.45,4.979a1.38,1.38,0,0,0,.041,2.76h.045c17.039-.535,27.544-3.448,32.29-5.137a1.38,1.38,0,0,0-.926-2.6" transform="translate(-2.023 -8.363)" fill="#b98c5a"/>
    <path id="Path_45" data-name="Path 45" d="M93.66,14.377a1.374,1.374,0,0,0,0,1.953,1.381,1.381,0,1,0,1.953-1.953,1.423,1.423,0,0,0-1.953,0" transform="translate(-28.887 -4.333)" fill="#b98c5a"/>
    <path id="Path_46" data-name="Path 46" d="M30.531,92.9a1.376,1.376,0,0,0,0,1.953,1.381,1.381,0,1,0,0-1.953" transform="translate(-9.332 -28.652)" fill="#b98c5a"/>
  </g>
</svg>
