<svg xmlns="http://www.w3.org/2000/svg" xmlns:xlink="http://www.w3.org/1999/xlink" width="433.772" height="249.088" viewBox="0 0 433.772 249.088">
  <defs>
    <clipPath id="clip-path">
      <rect id="Rectangle_10" data-name="Rectangle 10" width="433.772" height="249.088" fill="none"/>
    </clipPath>
  </defs>
  <g id="Group_4" data-name="Group 4" transform="translate(0 0)">
    <g id="Group_3" data-name="Group 3" transform="translate(0 0)" clip-path="url(#clip-path)">
      <path id="Path_19" data-name="Path 19" d="M80.424,10.721l-14.277-.3Q44.29,10.422,44.29,20a5.01,5.01,0,0,0,1.855,4.041q1.834,1.549,5.535,1.549T61.357,22.2l1.5,2.593a23.873,23.873,0,0,1-6.983,5.19,17.633,17.633,0,0,1-7.787,1.9,9.488,9.488,0,0,1-6.688-2.6A8.5,8.5,0,0,1,38.607,22.8q0-7.884,8.536-13.772t23.1-5.888q1.194,0,8.582.4t11.676.4a23.056,23.056,0,0,0,7.884-1.3,10.177,10.177,0,0,1,1.7-.4c.932,0,1.4.6,1.4,1.8,0,1.731-1.522,3.3-4.545,4.693a24.639,24.639,0,0,1-10.43,2.1q-6.585,6.387-11.521,22.3T63.2,57.378q-6.83,8.332-16.217,8.33A11.7,11.7,0,0,1,40,63.313l2.3-3.792a20.014,20.014,0,0,0,2.694,1.1l1.394.2a8,8,0,0,0,1.5.1q4.99,0,8.932-4.79T65.1,38.017Q69.447,24.7,71.888,20.352t8.536-9.63" transform="translate(111.251 6.442)" fill="#fff"/>
      <path id="Path_20" data-name="Path 20" d="M91.566,65.266l2.294,1.9q-4.2,6.981-10.884,6.983-5.788,0-5.788-5.687,0-3.3,2.845-10.531T82.879,48.4q0-2.894-3.691-2.892t-10.03,7.934A74.661,74.661,0,0,0,58.526,71.853l-5.881-2.1Q57.827,43.713,79.789,0l4.887,1.6Q73.6,23.75,68.808,36.825q-5,13.572-7.484,22.455Q69.01,46.6,74.545,41.716t9.63-4.891q7.383,0,7.391,5.287,0,3.3-3.7,11.777t-3.691,11.28q0,2.795,2.694,2.791,1.4,0,4.7-2.694" transform="translate(151.703 -0.001)" fill="#fff"/>
      <path id="Path_21" data-name="Path 21" d="M91.823,34.993l2.294,1.8a24.059,24.059,0,0,1-8.477,7.134A22.4,22.4,0,0,1,75.155,46.77a11.268,11.268,0,0,1-8.182-2.993,10.474,10.474,0,0,1-3.094-7.884q0-9.182,9.731-18.065T93.321,8.947q6.585,0,6.583,5.19,0,5.392-6.933,10.876t-19.509,9.98a7.507,7.507,0,0,0,2.795,3.594,6.8,6.8,0,0,0,3.893,1.3q4.285,0,11.672-4.891M72.962,32a52.969,52.969,0,0,0,13.873-6.987q5.782-4.192,5.784-7.682a3.406,3.406,0,0,0-3.288-3.3q-4.693,0-10.135,5.838T72.962,32" transform="translate(184.076 25.781)" fill="#fff"/>
      <path id="Path_22" data-name="Path 22" d="M66.732,64.547v.334c0,10.341-7.422,16.512-24.264,16.512H.519V26.018H44.051c13.007,0,18.764,4.254,18.764,13.178v.248c0,5.756-2.837,10.092-7.922,12.177,7.67,1.669,11.757,6.086,11.839,12.926M45.134,43.7c0-2.418-1.417-3.835-5.919-3.835H17.866v8.089H39.048c4.584,0,6.086-1.669,6.086-4.087Zm2.919,18.6c-.082-2.919-2.084-4.336-7.507-4.336H17.866v9.591H40.713c5.17,0,7.34-2,7.34-5.007Z" transform="translate(1.496 74.973)" fill="#fff"/>
      <path id="Path_23" data-name="Path 23" d="M72.209,81.39l-3.668-7.837H40.1L36.35,81.39H17.835L46.19,26.019H62.7L91.14,81.39ZM46.023,61.043H62.784L54.447,43.114Z" transform="translate(51.394 74.976)" fill="#fff"/>
      <path id="Path_24" data-name="Path 24" d="M81.423,81.33,70.329,64.317H56.153V81.33H38.224V26.04H77.669c14.929,0,22.933,4.67,22.933,17.929V46.3c0,9.258-3.754,14.261-11.008,16.512L102.686,81.33ZM56.153,40.883V50.89h20.6c3.75,0,5.337-1.25,5.337-4V44.8c0-2.752-1.588-3.92-5.337-3.92Z" transform="translate(110.147 75.036)" fill="#fff"/>
      <path id="Path_25" data-name="Path 25" d="M123.837,64.547v.334c0,10.341-7.422,16.512-24.264,16.512H57.624V26.018h43.532c13.007,0,18.764,4.254,18.764,13.178v.248c0,5.756-2.837,10.092-7.922,12.177,7.67,1.669,11.757,6.086,11.839,12.926M102.239,43.7c0-2.418-1.417-3.835-5.919-3.835H74.971v8.089H96.153c4.584,0,6.086-1.669,6.086-4.087Zm2.919,18.6c-.082-2.919-2.084-4.336-7.507-4.336H74.971v9.591H97.818c5.17,0,7.34-2,7.34-5.007Z" transform="translate(166.051 74.973)" fill="#fff"/>
      <path id="Path_26" data-name="Path 26" d="M132.847,40.78H94.737v7.34h33.106V59.043H94.737v7.589h38.11V81.394H77.39V26.018h55.457Z" transform="translate(223.009 74.974)" fill="#fff"/>
      <path id="Path_27" data-name="Path 27" d="M137.841,81.33,126.747,64.317H112.571V81.33H94.642V26.04h39.445c14.929,0,22.933,4.67,22.933,17.929V46.3c0,9.258-3.754,14.261-11.008,16.512L159.1,81.33ZM112.571,40.883V50.89h20.6c3.75,0,5.337-1.25,5.337-4V44.8c0-2.752-1.588-3.92-5.337-3.92Z" transform="translate(272.723 75.036)" fill="#fff"/>
      <path id="Path_28" data-name="Path 28" d="M36.091,90.065H27.885a9.689,9.689,0,0,1-3.917-.792A9.977,9.977,0,0,1,20.8,87.1a10.462,10.462,0,0,1-2.147-3.195,9.689,9.689,0,0,1-.792-3.917h5.364a4.483,4.483,0,0,0,.369,1.817A5.189,5.189,0,0,0,24.6,83.3a4.631,4.631,0,0,0,1.467,1.025,4.391,4.391,0,0,0,1.82.373h8.206a4.366,4.366,0,0,0,1.82-.373A4.691,4.691,0,0,0,39.383,83.3a5.165,5.165,0,0,0,1-1.494,4.362,4.362,0,0,0,.377-1.817,4.619,4.619,0,0,0-4.666-4.666l-8.206-.047a9.689,9.689,0,0,1-3.917-.792A9.9,9.9,0,0,1,20.8,72.322a10.527,10.527,0,0,1-2.147-3.2,9.684,9.684,0,0,1-.792-3.913,9.561,9.561,0,0,1,.792-3.87,10.527,10.527,0,0,1,2.147-3.2,9.968,9.968,0,0,1,3.171-2.166,9.625,9.625,0,0,1,3.917-.792H35.02a9.555,9.555,0,0,1,3.874.792,10.266,10.266,0,0,1,5.361,5.364,9.561,9.561,0,0,1,.792,3.87H39.685a4.619,4.619,0,0,0-4.666-4.666H27.885a4.518,4.518,0,0,0-3.311,1.347,4.472,4.472,0,0,0-1.351,3.3,4.626,4.626,0,0,0,.369,1.832,4.746,4.746,0,0,0,2.473,2.48,4.453,4.453,0,0,0,1.82.373l8.206.047a9.531,9.531,0,0,1,3.874.8,10.491,10.491,0,0,1,3.191,2.147,10.009,10.009,0,0,1,2.17,3.183,10.12,10.12,0,0,1,0,7.849,10.305,10.305,0,0,1-5.361,5.376,9.532,9.532,0,0,1-3.874.8" transform="translate(51.463 159.022)" fill="#fff"/>
      <path id="Path_29" data-name="Path 29" d="M47.862,55.185h5.454V90.023H47.862V73.557H31.679V90.023H26.222V55.185h5.458V68.1H47.862Z" transform="translate(75.561 159.022)" fill="#fff"/>
      <path id="Path_30" data-name="Path 30" d="M40.153,90.019H34.187L49.248,55.185h2.989L67.3,90.019H61.331l-3.264-7.507H43.421ZM50.742,65.491,45.754,77.054H55.73Z" transform="translate(98.514 159.022)" fill="#fff"/>
      <path id="Path_31" data-name="Path 31" d="M56.373,90.041,41.359,55.161h5.919l5.644,13.007,4.945,11.571,7.367-17.025,3.218-7.554h5.966L59.4,90.041Z" transform="translate(119.182 158.952)" fill="#fff"/>
      <path id="Path_32" data-name="Path 32" d="M73.422,89.938H50.851V55.2H73.422v5.364H56.211v7.833H71.183v5.361H56.211V84.577H73.422Z" transform="translate(146.533 159.056)" fill="#fff"/>
      <path id="Path_33" data-name="Path 33" d="M87.214,77.907l-4.247,3.781,4.2,4.848-3.917,3.4-4.149-4.8L77.65,86.443l-.047.047a20.36,20.36,0,0,1-3.5,2.286A10.441,10.441,0,0,1,70.329,89.8v.05H69.211a12.542,12.542,0,0,1-5.062-1.168A11.32,11.32,0,0,1,60.07,85.6a9.853,9.853,0,0,1-2.03-3.633,8.533,8.533,0,0,1-.21-4.01,17.756,17.756,0,0,1,.652-2.263,11.216,11.216,0,0,1,1.541-2.822,14.855,14.855,0,0,1,2.24-2.519,29.275,29.275,0,0,1,2.422-1.914l-.415-.466-.05-.043a3.374,3.374,0,0,0-.276-.4,2.732,2.732,0,0,1-.237-.3,18.857,18.857,0,0,1-1.355-1.984,5.16,5.16,0,0,1-.555-2.589v-.089a6.747,6.747,0,0,1,.606-2.826,7.948,7.948,0,0,1,1.607-2.329,7.6,7.6,0,0,1,2.333-1.588,7.123,7.123,0,0,1,2.869-.582l.606-.047v.047a7.265,7.265,0,0,1,2.705.7,7.4,7.4,0,0,1,2.189,1.584,7.619,7.619,0,0,1,1.494,2.286,6.923,6.923,0,0,1,.559,2.752v.089a7.3,7.3,0,0,1-.679,3.105,6.486,6.486,0,0,1-1.84,2.4c-.311.252-.613.481-.908.7s-.6.435-.908.652l7.181,8.252,4.2-3.73ZM75.74,81.218l-7.651-8.862c-.741.532-1.436,1.067-2.073,1.611a11.191,11.191,0,0,0-1.8,1.984,6.958,6.958,0,0,0-.912,1.681c-.167.5-.283.881-.345,1.161a3.226,3.226,0,0,0,.163,2.03,6.368,6.368,0,0,0,.862,1.421,7.087,7.087,0,0,0,2.356,1.751,6.715,6.715,0,0,0,2.915.675h.186a5.566,5.566,0,0,0,2.263-.443,13.3,13.3,0,0,0,2.632-1.747Zm-6.529-20.8a2.227,2.227,0,0,0-2.24,2.236.887.887,0,0,0,.116.443,11.11,11.11,0,0,0,.675.959,2.4,2.4,0,0,1,.256.3c.078.109.163.225.26.349l.745.885c.342-.245.675-.489,1-.722s.66-.489,1.005-.769a1.483,1.483,0,0,0,.369-.536,2.06,2.06,0,0,0,.186-.912,2.227,2.227,0,0,0-2.236-2.236Z" transform="translate(166.225 159.053)" fill="#fff"/>
      <path id="Path_34" data-name="Path 34" d="M65.832,55.161H92.925v5.454H82.107V90.041H76.65V60.614H65.832Z" transform="translate(189.702 158.951)" fill="#fff"/>
      <path id="Path_35" data-name="Path 35" d="M93.928,90,84.853,76.848H79.132V90.138H73.678V55.161l16.085.047a10.288,10.288,0,0,1,4.2.862A11.2,11.2,0,0,1,97.387,58.4a10.649,10.649,0,0,1,2.31,3.474,10.871,10.871,0,0,1,.838,4.243,10.528,10.528,0,0,1-2.655,7.065,11.083,11.083,0,0,1-2.938,2.356A10.427,10.427,0,0,1,91.3,76.751L100.492,90ZM89.779,71.483a5.094,5.094,0,0,0,2.069-.419A5.254,5.254,0,0,0,93.521,69.9a5.758,5.758,0,0,0,1.141-1.7,5.1,5.1,0,0,0,.415-2.077A5.463,5.463,0,0,0,94.662,64,5.381,5.381,0,0,0,93.5,62.249a5.957,5.957,0,0,0-1.7-1.192,4.852,4.852,0,0,0-2.069-.442h-10.6V71.437Z" transform="translate(212.313 158.952)" fill="#fff"/>
      <rect id="Rectangle_6" data-name="Rectangle 6" width="5.458" height="34.838" transform="translate(317.653 214.204)" fill="#fff"/>
      <path id="Path_36" data-name="Path 36" d="M121.085,55.161V90h-5.454V65.563L102.756,78.338,89.935,65.563V90H84.478V55.161h2.748l15.53,15.484,15.577-15.484Z" transform="translate(243.434 158.951)" fill="#fff"/>
      <rect id="Rectangle_7" data-name="Rectangle 7" width="129.107" height="3.796" transform="translate(295.427 55.236)" fill="#fff"/>
      <rect id="Rectangle_8" data-name="Rectangle 8" width="129.107" height="3.796" transform="translate(0 55.236)" fill="#fff"/>
      <rect id="Rectangle_9" data-name="Rectangle 9" width="433.772" height="3.796" transform="translate(0 188.899)" fill="#fff"/>
    </g>
  </g>
</svg>
