<svg xmlns="http://www.w3.org/2000/svg" width="23.417" height="23.415" viewBox="0 0 23.417 23.415">
  <g id="telephone-fill" transform="translate(-1.124 -1.126)">
    <path id="Path_132" data-name="Path 132" d="M3.883,1.875A2.554,2.554,0,0,1,7.7,2.112l2.624,3.374a2.547,2.547,0,0,1,.462,2.185l-.8,3.2a.993.993,0,0,0,.261.943l3.6,3.6a.993.993,0,0,0,.943.261l3.2-.8a2.554,2.554,0,0,1,2.187.462l3.374,2.624a2.553,2.553,0,0,1,.239,3.821L22.278,23.3a4.067,4.067,0,0,1-4.21,1.027A27.27,27.27,0,0,1,7.811,17.855,27.27,27.27,0,0,1,1.342,7.6,4.069,4.069,0,0,1,2.369,3.386L3.884,1.873Z" transform="translate(0)" fill="#b98c5a" fill-rule="evenodd"/>
  </g>
</svg>
