<svg xmlns="http://www.w3.org/2000/svg" width="26.154" height="21.245" viewBox="0 0 26.154 21.245">
  <path id="twitter-bird" d="M26.154,2.516a10.865,10.865,0,0,1-2.681,2.771q.016.307.016.695a15.412,15.412,0,0,1-2.544,8.437,16.3,16.3,0,0,1-3.072,3.494,13.692,13.692,0,0,1-4.285,2.427,15.65,15.65,0,0,1-5.364.905A14.935,14.935,0,0,1,0,18.834a11.6,11.6,0,0,0,1.28.074,10.52,10.52,0,0,0,6.665-2.3,5.206,5.206,0,0,1-3.116-1.071,5.274,5.274,0,0,1-1.894-2.655,5.364,5.364,0,0,0,2.423-.09,5.229,5.229,0,0,1-3.08-1.849,5.192,5.192,0,0,1-1.223-3.41V7.469a5.3,5.3,0,0,0,2.431.671A5.33,5.33,0,0,1,1.741,6.228,5.235,5.235,0,0,1,1.1,3.677a5.272,5.272,0,0,1,.726-2.7,15.277,15.277,0,0,0,4.892,3.96A14.91,14.91,0,0,0,12.88,6.588a5.247,5.247,0,0,1-.141-1.221,5.169,5.169,0,0,1,1.572-3.793,5.368,5.368,0,0,1,7.71.12A10.687,10.687,0,0,0,25.428.39a5.187,5.187,0,0,1-2.357,2.969,10.723,10.723,0,0,0,3.082-.843Z" fill="#26120c"/>
</svg>
